HIERARCHY
ROOT root
{
	OFFSET 0.000000 0.000000 0.000000
	CHANNELS 6 Xposition Yposition Zposition Zrotation Yrotation Xrotation
	JOINT lhip
	{
		OFFSET 0.058581 -0.082280 -0.017664
		CHANNELS 3 Zrotation Yrotation Xrotation
		JOINT lknee
		{
			OFFSET 0.043451 -0.386469 0.008037
			CHANNELS 3 Zrotation Yrotation Xrotation
			JOINT lankle
			{
				OFFSET -0.014790 -0.426874 -0.037428
				CHANNELS 3 Zrotation Yrotation Xrotation
				JOINT ltoe
				{
					OFFSET 0.041054 -0.060286 0.122042
					CHANNELS 3 Zrotation Yrotation Xrotation
					End Site
					{
						OFFSET 0.000000 0.000000 0.000000
					}
				}
			}
		}
	}
	JOINT rhip
	{
		OFFSET -0.060310 -0.090513 -0.013543
		CHANNELS 3 Zrotation Yrotation Xrotation
		JOINT rknee
		{
			OFFSET -0.043257 -0.383688 -0.004843
			CHANNELS 3 Zrotation Yrotation Xrotation
			JOINT rankle
			{
				OFFSET 0.019056 -0.420046 -0.034562
				CHANNELS 3 Zrotation Yrotation Xrotation
				JOINT rtoe
				{
					OFFSET -0.034840 -0.062106 0.130323
					CHANNELS 3 Zrotation Yrotation Xrotation
					End Site
					{
						OFFSET 0.000000 0.000000 0.000000
					}
				}
			}
		}
	}
	JOINT lowerback
	{
		OFFSET 0.004439 0.124404 -0.038385
		CHANNELS 3 Zrotation Yrotation Xrotation
		JOINT upperback
		{
			OFFSET 0.004488 0.137956 0.026820
			CHANNELS 3 Zrotation Yrotation Xrotation
			JOINT chest
			{
				OFFSET -0.002265 0.056032 0.002855
				CHANNELS 3 Zrotation Yrotation Xrotation
				JOINT lowerneck
				{
					OFFSET -0.013390 0.211636 -0.033468
					CHANNELS 3 Zrotation Yrotation Xrotation
					JOINT upperneck
					{
						OFFSET 0.010113 0.088937 0.050410
						CHANNELS 3 Zrotation Yrotation Xrotation
						End Site
						{
							OFFSET 0.000000 0.000000 0.000000
						}
					}
				}
				JOINT lclavicle
				{
					OFFSET 0.071702 0.114000 -0.018898
					CHANNELS 3 Zrotation Yrotation Xrotation
					JOINT lshoulder
					{
						OFFSET 0.122921 0.045205 -0.019046
						CHANNELS 3 Zrotation Yrotation Xrotation
						JOINT lelbow
						{
							OFFSET 0.255332 -0.015649 -0.022946
							CHANNELS 3 Zrotation Yrotation Xrotation
							JOINT lwrist
							{
								OFFSET 0.265709 0.012698 -0.007375
								CHANNELS 3 Zrotation Yrotation Xrotation
								End Site
								{
									OFFSET 0.000000 0.000000 0.000000
								}
							}
						}
					}
				}
				JOINT rclavicle
				{
					OFFSET -0.082954 0.112472 -0.023707
					CHANNELS 3 Zrotation Yrotation Xrotation
					JOINT rshoulder
					{
						OFFSET -0.113228 0.046853 -0.008472
						CHANNELS 3 Zrotation Yrotation Xrotation
						JOINT relbow
						{
							OFFSET -0.260127 -0.014369 -0.031269
							CHANNELS 3 Zrotation Yrotation Xrotation
							JOINT rwrist
							{
								OFFSET -0.269108 0.006794 -0.006027
								CHANNELS 3 Zrotation Yrotation Xrotation
								End Site
								{
									OFFSET 0.000000 0.000000 0.000000
								}
							}
						}
					}
				}
			}
		}
	}
}
MOTION
Frames: 17
Frame Time: 0.033333
-0.100086 -1.980769 0.997818 -176.927289 2.185354 89.630092 -2.884520 0.546131 0.836515 -4.924503 -9.567480 -1.955074 6.738203 11.559867 -7.558189 0.000000 -0.000000 0.000000 -3.015898 -0.909837 -17.496580 4.347932 -1.900494 28.103253 1.833149 -11.398347 -13.731507 0.000000 -0.000000 0.000000 -2.072387 0.394542 14.502982 1.910907 -0.037445 -2.066577 1.422771 0.050085 -3.390036 5.986630 -6.960365 -11.885483 5.261809 0.805082 12.328214 -28.982145 -0.460405 -0.909288 -48.221296 -7.340713 9.724547 13.463380 -22.067347 -4.739929 2.761556 -2.896037 -1.246480 23.886310 4.898797 0.540047 48.929394 7.201665 15.581627 -8.007283 23.397619 3.878974 5.408018 2.788490 4.759660 
-0.101657 -1.977847 0.997256 -176.700040 2.200869 89.679271 -2.906047 0.473848 1.086499 -5.094700 -9.989238 -2.040429 6.057424 11.389494 -7.788292 0.000000 -0.000000 0.000000 -3.060569 -0.768169 -17.279217 4.287051 -1.923948 28.162973 1.630119 -11.463128 -13.955457 0.000000 -0.000000 0.000000 -2.018756 0.385321 14.200129 1.861798 0.043546 -1.904039 1.504652 -0.003998 -3.201920 6.060711 -6.913719 -11.824370 5.206142 0.584326 12.277801 -29.280679 -0.490317 -0.838526 -47.812943 -7.458655 9.379053 13.270227 -22.136480 -4.594526 2.822150 -3.053244 -1.172201 23.807708 4.823557 0.451372 49.087904 7.071874 15.515559 -8.052288 23.099294 4.021776 5.305729 2.681919 4.587808 
-0.103370 -1.974596 0.996794 -176.503553 2.210448 89.747902 -2.934387 0.491924 1.217660 -5.402656 -10.279145 -1.774428 5.472980 11.296094 -7.680968 0.000000 -0.000000 0.000000 -3.205626 -0.863518 -17.217956 4.336745 -2.031239 28.439697 1.621659 -11.513762 -14.144721 0.000000 -0.000000 0.000000 -2.042536 0.432171 14.048205 1.900532 0.122196 -1.640591 1.522607 -0.020117 -3.291146 6.123772 -7.011543 -11.829286 5.233072 0.599498 12.283654 -29.530270 -0.395816 -0.914489 -47.564154 -7.563273 9.247200 13.191636 -22.298309 -4.571934 3.065874 -3.005586 -0.907531 23.935968 4.637786 0.401034 48.896379 6.904857 15.438948 -7.816756 22.977912 4.153133 5.248331 2.782107 4.892285 
-0.106518 -1.969257 0.995323 -175.950823 2.276370 89.932906 -3.058346 0.358036 1.039257 -5.593370 -10.810747 -1.007157 5.259520 11.171296 -8.424149 0.000000 -0.000000 0.000000 -3.394799 -0.809617 -17.267162 4.392996 -2.124962 29.259577 1.807428 -11.871662 -14.705047 0.000000 -0.000000 0.000000 -1.989051 0.351580 14.182131 1.888494 0.199245 -1.967232 1.503186 0.005083 -3.195051 6.444133 -7.483621 -11.861652 5.257959 0.444901 12.370923 -29.660923 -0.106797 -1.202057 -47.462960 -7.683711 9.294832 13.001706 -22.646081 -4.147127 3.277720 -2.972878 -0.784911 23.947277 4.263417 0.154023 49.031640 6.550606 15.515220 -7.777425 22.521490 4.324571 5.258009 2.504413 4.926722 
-0.107628 -1.967108 0.994693 -175.744265 2.289194 89.905734 -3.138835 0.034934 1.094153 -5.565424 -10.598168 -0.738525 5.575598 11.272829 -8.776762 0.000000 -0.000000 0.000000 -3.462969 -0.867365 -17.336150 4.321303 -2.322818 29.846907 1.943837 -11.935875 -14.881072 0.000000 -0.000000 0.000000 -2.026726 0.350180 14.284289 1.894633 0.199145 -2.043857 1.512385 0.014639 -3.279296 6.486625 -7.542384 -11.435801 5.334515 0.293352 12.287420 -29.574536 -0.157631 -1.114590 -47.570063 -7.664036 9.266949 13.034166 -22.726171 -4.170337 3.052023 -3.134802 -0.831160 23.862837 4.301014 0.266641 49.221337 6.350489 15.472785 -7.952081 22.296353 4.239506 5.293890 2.613358 4.881504 
-0.109851 -1.962877 0.993287 -175.269432 2.251405 89.799269 -3.250895 -0.260986 1.184705 -5.863760 -10.986172 -0.010514 5.742464 11.307771 -9.612080 0.000000 -0.000000 0.000000 -3.726521 -1.136265 -17.823466 4.169996 -2.934733 31.807742 2.161477 -12.089735 -14.914911 0.000000 -0.000000 0.000000 -2.285755 0.341330 14.303848 1.997678 0.172905 -1.662184 1.558964 0.003454 -3.386271 6.709376 -7.690214 -11.023981 5.445164 -0.020636 11.982293 -29.489920 -0.306015 -0.970260 -47.512689 -7.695446 9.202155 12.827478 -23.310787 -4.301572 3.204328 -3.153960 -0.781957 23.928730 4.512691 0.444004 49.203958 6.009858 15.325491 -8.185143 22.142710 3.947699 5.249024 2.713432 4.814996 
-0.111903 -1.958263 0.991964 -174.906839 2.263552 89.584016 -3.168972 -0.485654 1.682152 -6.426964 -11.433658 0.452104 5.553264 11.124201 -10.588262 0.000000 -0.000000 0.000000 -3.978639 -1.213931 -18.953903 3.916389 -3.921849 35.182458 2.642985 -12.197112 -14.247422 0.000000 -0.000000 0.000000 -2.584638 0.290720 14.548289 2.135911 0.319689 -1.459816 1.642317 -0.087463 -3.183590 7.100549 -7.751896 -10.800617 5.522751 -0.453247 11.333812 -29.546647 -0.322034 -1.175875 -47.530677 -7.965221 9.075505 12.583213 -23.524747 -4.261724 3.077017 -3.231519 -0.474911 24.202511 4.473176 0.319967 48.984945 5.977771 15.088271 -8.409568 21.984330 3.700640 5.422901 2.755181 4.965173 
-0.114046 -1.953508 0.990800 -174.593169 2.296927 89.327943 -3.244311 -0.684463 2.152308 -6.609231 -11.743892 0.948549 5.720396 11.432866 -11.199964 0.000000 -0.000000 0.000000 -4.213450 -1.453563 -21.389525 3.079206 -5.726418 40.737546 3.294312 -12.729611 -11.889885 0.000000 -0.000000 0.000000 -2.862203 0.060182 15.092415 2.291957 0.527198 -1.442099 1.578085 -0.141229 -3.082255 7.507130 -7.881640 -10.595052 5.649894 -0.772608 11.189857 -29.361178 -0.277574 -1.401578 -47.819152 -8.190582 9.312949 12.426012 -23.450071 -4.527035 2.794453 -3.330875 -0.226324 24.323189 4.484148 0.154540 49.000624 5.925293 15.099843 -8.626683 21.800136 3.402124 5.546909 2.919487 5.001094 
-0.115777 -1.947962 0.990420 -174.334044 2.393763 88.954600 -3.207007 -0.620760 3.037312 -6.656831 -12.089542 1.107631 6.113969 11.742803 -11.770532 0.000000 -0.000000 0.000000 -4.328962 -1.685336 -24.250505 2.080779 -7.774329 46.969736 3.147378 -13.332679 -9.288277 0.000000 -0.000000 0.000000 -3.076599 -0.326149 15.698549 2.447180 0.700954 -1.277466 1.469150 -0.290233 -2.894094 7.971907 -8.053806 -10.499292 5.829557 -0.986871 10.853022 -29.271736 -0.393938 -1.269643 -47.974786 -8.309445 9.360124 12.558072 -23.345513 -5.178702 2.623192 -3.243497 -0.097370 24.540459 4.616556 0.069257 48.980333 6.107313 15.072169 -8.763913 21.850763 3.115435 5.799113 3.030047 4.838396 
-0.117145 -1.942103 0.990451 -174.358710 2.595266 88.480803 -3.018329 -0.441806 4.288749 -6.655649 -13.017131 0.690040 5.864369 12.029518 -12.212018 0.000000 -0.000000 0.000000 -4.226261 -1.322983 -26.886025 0.838854 -10.433226 51.566765 2.314623 -15.243032 -8.651644 0.000000 -0.000000 0.000000 -3.117034 -0.920079 17.011459 2.344912 1.144236 -1.895806 1.445607 -0.454340 -2.372976 8.289781 -8.011445 -10.842604 5.872149 -1.232092 10.611632 -29.309995 -0.583874 -1.016894 -48.050393 -8.427074 9.244523 13.051274 -23.001217 -5.511509 2.470920 -3.067279 -0.307126 24.467595 4.943519 -0.221917 49.315387 5.765579 15.277050 -9.065215 22.314733 3.345916 5.713744 2.837298 3.788158 
-0.118244 -1.935191 0.991156 -174.468784 2.872207 88.316607 -2.623914 0.128229 5.284645 -6.723940 -13.621247 0.510524 5.440438 12.063733 -12.645423 0.000000 -0.000000 0.000000 -3.648330 -1.547998 -29.485584 0.090380 -12.622224 52.961531 1.809756 -16.025415 -8.997583 0.000000 -0.000000 0.000000 -3.023634 -1.449226 18.080551 2.255398 1.364589 -2.705609 1.405923 -0.608434 -1.734242 8.479906 -7.804499 -11.923186 5.821083 -1.542300 10.691539 -29.255354 -0.841706 -0.975879 -47.824548 -8.256832 9.360494 12.803445 -22.567262 -5.794103 2.792617 -3.035141 -0.766804 24.480512 5.257151 -0.604007 49.529285 5.452033 15.486521 -8.963390 22.628402 3.806064 5.521547 3.051718 3.434895 
-0.119276 -1.926819 0.992092 -174.504536 3.246713 88.506029 -2.082654 0.674179 6.239708 -6.425133 -14.342269 -0.363249 5.030900 11.797539 -13.076866 0.000000 -0.000000 0.000000 -2.611436 -1.760530 -32.027047 0.676621 -13.750391 51.196520 1.888548 -15.257059 -8.902112 0.000000 -0.000000 0.000000 -2.824232 -1.941749 18.630262 2.257823 1.407466 -2.991055 1.434427 -0.706720 -1.857266 7.967620 -7.553850 -11.455739 5.766430 -1.337170 9.974084 -29.020261 -1.090437 -0.878786 -48.348947 -8.042727 9.535506 13.340827 -21.538523 -6.176283 3.282735 -2.732368 -0.896410 24.239066 5.230313 -0.550806 49.803438 5.345408 15.329420 -8.419524 22.976034 4.576692 5.464973 2.974112 3.525998 
-0.120522 -1.916297 0.993007 -174.547822 3.498023 88.793700 -1.717364 1.300639 6.815938 -6.261581 -14.322222 -0.150225 5.339618 11.945854 -13.344850 0.000000 -0.000000 0.000000 -1.414115 -1.942394 -34.183548 1.560133 -14.613314 46.823324 1.694459 -15.470796 -8.824470 0.000000 -0.000000 0.000000 -2.878515 -2.275547 18.901026 2.452306 1.409681 -2.782213 1.540317 -0.906293 -2.089456 7.348246 -6.891855 -12.033687 5.621660 -1.020646 9.192744 -28.898493 -0.968664 -0.721786 -47.949042 -7.325097 9.712329 12.580938 -22.912346 -6.769834 3.839438 -1.704214 -0.775741 24.412666 5.242998 -0.616955 49.519290 4.629468 15.115195 -8.249310 24.158352 4.688959 5.649765 2.686491 3.938522 
-0.122199 -1.905037 0.992945 -174.679433 3.703075 89.226373 -1.705143 1.676058 7.347446 -5.426643 -14.236929 -0.520886 5.735031 12.103304 -13.622258 0.000000 -0.000000 0.000000 -0.304721 -1.410639 -36.004541 2.417571 -15.441692 40.594746 1.862429 -16.070926 -8.514417 0.000000 -0.000000 0.000000 -2.836017 -2.540776 18.804869 2.559933 1.410643 -2.538605 1.741795 -1.078656 -2.064793 6.575204 -6.272895 -12.317384 5.525947 -0.871723 7.943948 -28.553563 -1.053007 -0.557770 -48.660244 -7.520618 9.709230 13.329968 -22.420490 -7.163026 3.497459 -1.685673 -0.261221 24.093621 5.304958 -0.576270 49.815291 4.381420 14.655622 -8.380967 24.204298 4.727214 5.911752 2.891184 4.135632 
-0.123760 -1.892417 0.992145 -174.361318 3.925717 89.718363 -1.497248 1.912551 7.759169 -5.115119 -14.683106 -0.343595 5.573600 12.081055 -14.368347 0.000000 -0.000000 0.000000 0.766211 -0.781722 -37.226202 2.991716 -15.963626 33.358386 1.693261 -16.786904 -7.897668 0.000000 -0.000000 0.000000 -2.818106 -2.964071 19.384890 2.721261 1.329746 -3.029581 1.995473 -1.278570 -1.977057 6.023769 -6.216847 -13.373218 5.448356 -0.627188 6.957605 -28.541061 -1.038654 -0.686035 -48.691480 -7.652006 10.067728 13.447235 -22.545240 -7.413715 3.836028 -1.795866 -0.268236 24.035275 5.052783 -0.860352 49.848680 3.987273 14.444069 -8.501858 24.092664 4.517305 5.956490 2.801223 3.996952 
-0.125334 -1.877813 0.989980 -174.387790 3.955881 90.254039 -1.387560 2.096865 8.796823 -4.904553 -15.603058 -1.124943 4.652911 11.839269 -15.177835 0.000000 -0.000000 0.000000 1.754734 0.174901 -37.903935 3.260999 -15.995737 25.604487 1.634567 -17.489818 -7.945642 0.000000 -0.000000 0.000000 -2.987990 -3.080870 19.253740 2.852598 1.273809 -2.616433 2.240507 -1.412407 -2.164433 5.358655 -5.756534 -13.860705 5.447231 -0.393429 5.732744 -28.413624 -1.201641 -0.604415 -48.710060 -7.988165 10.263428 13.646948 -22.850947 -7.740031 3.769019 -2.004612 -0.136821 23.950817 5.056421 -0.966245 49.920382 3.497295 13.966590 -8.735470 23.728678 4.061870 6.385890 2.401984 3.762144 
-0.126930 -1.861348 0.986103 -174.303956 3.714647 91.013631 -1.591800 2.310614 9.446871 -5.004506 -16.830869 -1.414878 2.961339 11.448599 -15.809639 0.000000 -0.000000 0.000000 2.597325 0.843923 -38.868897 3.109107 -15.208875 19.330220 1.259268 -17.963554 -7.730572 0.000000 -0.000000 0.000000 -3.408627 -3.231904 19.038493 2.997897 1.217972 -2.607443 2.404383 -1.500973 -2.227366 4.927391 -5.311312 -15.256032 5.773675 -0.162016 5.490352 -28.423515 -1.355112 -0.684942 -48.587970 -8.389924 10.801882 13.946326 -23.034160 -7.976363 4.238913 -2.397151 0.255229 24.286474 4.914733 -0.974452 49.489772 3.062834 13.787130 -8.738087 23.092844 3.719437 6.497394 2.322131 3.581691 
